<svg width="49" height="48" viewBox="0 0 49 48" fill="none" xmlns="http://www.w3.org/2000/svg">
<path fill-rule="evenodd" clip-rule="evenodd" d="M36.6493 13.6822L37.7206 17.6832C37.7401 17.7558 37.75 17.8309 37.75 17.9065V20.5178C37.75 21.9659 36.903 23.2057 35.7104 23.7058V34.0109C35.7104 35.659 34.4536 37 32.9089 37H16.5913C15.0464 37 13.7898 35.659 13.7898 34.0109V23.7058C12.597 23.2057 11.75 21.9659 11.75 20.5178V17.9065C11.75 17.8309 11.7599 17.7558 11.7794 17.6832L12.8507 13.6822C13.2536 12.178 14.7173 11 16.1832 11H33.3168C34.7827 11 36.2464 12.178 36.6493 13.6822ZM16.1832 12.6254C15.4027 12.6254 14.5301 13.3279 14.3156 14.1288L13.5216 17.0937H35.9784L35.1844 14.1288C34.9699 13.3279 34.0971 12.6254 33.3168 12.6254H16.1832ZM21.5407 18.7192H18.1687V20.5178C18.1687 21.5098 18.925 22.3168 19.8546 22.3168C20.7843 22.3168 21.5407 21.5098 21.5407 20.5178V18.7192ZM26.4359 18.7192H23.0641V20.5178C23.0641 21.5098 23.8205 22.3168 24.75 22.3168C25.6795 22.3168 26.4359 21.5098 26.4359 20.5178V18.7192ZM31.3311 18.7192H27.9593V20.5178C27.9593 21.5098 28.7157 22.3168 29.6452 22.3168C30.575 22.3168 31.3311 21.5098 31.3311 20.5178V18.7192ZM13.2734 18.7192V20.5178C13.2734 21.5098 14.0298 22.3168 14.9593 22.3168C15.8891 22.3168 16.6452 21.5098 16.6452 20.5178V18.7192H13.2734ZM19.3926 30.4711V35.3745H21.9487V30.4711H19.3926ZM23.4721 35.3745H32.9089C33.6135 35.3745 34.187 34.7629 34.1868 34.0109V23.9211C33.3505 23.8226 32.6102 23.3801 32.0928 22.7293C31.5037 23.4705 30.6254 23.9422 29.6452 23.9422C28.6651 23.9422 27.7868 23.4705 27.1976 22.7293C26.6085 23.4705 25.7301 23.9422 24.75 23.9422C23.7699 23.9422 22.8915 23.4705 22.3024 22.7293C21.7132 23.4705 20.8347 23.9422 19.8546 23.9422C18.8745 23.9422 17.9963 23.4705 17.407 22.7293C16.8898 23.3801 16.1495 23.8226 15.3132 23.9211V34.0109C15.3132 34.7629 15.8865 35.3745 16.5913 35.3745H17.8691V29.6584C17.8691 29.2097 18.2103 28.8457 18.6309 28.8457H22.7104C23.131 28.8457 23.4721 29.2097 23.4721 29.6584V35.3745ZM32.8548 20.518C32.8548 21.5098 33.6109 22.3168 34.5407 22.3168C35.4702 22.3168 36.2266 21.5098 36.2266 20.518V18.7192H32.8548V20.518ZM26.7897 26.2336H30.8691C31.2898 26.2336 31.6308 26.6117 31.6308 27.0776V31.636C31.6308 32.102 31.2898 32.48 30.8691 32.48H26.7897C26.369 32.48 26.028 32.102 26.028 31.636V27.0776C26.028 26.6117 26.369 26.2336 26.7897 26.2336ZM27.5515 30.792H30.1074V27.9216H27.5515V30.792Z" fill="#0086FF"/>
<path d="M37.7206 17.6832L37.624 17.709L37.624 17.709L37.7206 17.6832ZM36.6493 13.6822L36.7459 13.6563L36.7459 13.6563L36.6493 13.6822ZM35.7104 23.7058L35.6717 23.6136L35.6104 23.6393V23.7058H35.7104ZM13.7898 23.7058H13.8898V23.6393L13.8284 23.6136L13.7898 23.7058ZM11.7794 17.6832L11.876 17.709L11.876 17.709L11.7794 17.6832ZM12.8507 13.6822L12.7541 13.6563L12.7541 13.6563L12.8507 13.6822ZM14.3156 14.1288L14.4122 14.1546L14.4122 14.1546L14.3156 14.1288ZM13.5216 17.0937L13.425 17.0679L13.3913 17.1937H13.5216V17.0937ZM35.9784 17.0937V17.1937H36.1087L36.075 17.0679L35.9784 17.0937ZM35.1844 14.1288L35.0878 14.1546L35.0878 14.1546L35.1844 14.1288ZM18.1687 18.7192V18.6192H18.0687V18.7192H18.1687ZM21.5407 18.7192H21.6407V18.6192H21.5407V18.7192ZM23.0641 18.7192V18.6192H22.9641V18.7192H23.0641ZM26.4359 18.7192H26.5359V18.6192H26.4359V18.7192ZM27.9593 18.7192V18.6192H27.8593V18.7192H27.9593ZM31.3311 18.7192H31.4311V18.6192H31.3311V18.7192ZM13.2734 18.7192V18.6192H13.1734V18.7192H13.2734ZM16.6452 18.7192H16.7452V18.6192H16.6452V18.7192ZM19.3926 35.3745H19.2926V35.4746H19.3926V35.3745ZM19.3926 30.4711V30.3711H19.2926V30.4711H19.3926ZM21.9487 35.3745V35.4746H22.0487V35.3745H21.9487ZM21.9487 30.4711H22.0487V30.3711H21.9487V30.4711ZM23.4721 35.3745H23.3721V35.4746H23.4721V35.3745ZM34.1868 34.0109H34.0868V34.0109L34.1868 34.0109ZM34.1868 23.9211H34.2868V23.8321L34.1985 23.8217L34.1868 23.9211ZM32.0928 22.7293L32.1711 22.667L32.0928 22.5686L32.0146 22.667L32.0928 22.7293ZM27.1976 22.7293L27.2759 22.667L27.1976 22.5686L27.1193 22.667L27.1976 22.7293ZM22.3024 22.7293L22.3807 22.667L22.3024 22.5686L22.2241 22.667L22.3024 22.7293ZM17.407 22.7293L17.4852 22.667L17.4069 22.5686L17.3287 22.6671L17.407 22.7293ZM15.3132 23.9211L15.3015 23.8217L15.2132 23.8321V23.9211H15.3132ZM17.8691 35.3745V35.4746H17.9691V35.3745H17.8691ZM36.2266 18.7192H36.3266V18.6192H36.2266V18.7192ZM32.8548 18.7192V18.6192H32.7548V18.7192H32.8548ZM30.1074 30.792V30.892H30.2074V30.792H30.1074ZM27.5515 30.792H27.4515V30.892H27.5515V30.792ZM30.1074 27.9216H30.2074V27.8216H30.1074V27.9216ZM27.5515 27.9216V27.8216H27.4515V27.9216H27.5515ZM37.8172 17.6573L36.7459 13.6563L36.5527 13.7081L37.624 17.709L37.8172 17.6573ZM37.85 17.9065C37.85 17.8222 37.8389 17.7383 37.8172 17.6573L37.624 17.709C37.6412 17.7732 37.65 17.8396 37.65 17.9065H37.85ZM37.85 20.5178V17.9065H37.65V20.5178H37.85ZM35.7491 23.798C36.9802 23.2818 37.85 22.0047 37.85 20.5178H37.65C37.65 21.927 36.8258 23.1296 35.6717 23.6136L35.7491 23.798ZM35.8104 34.0109V23.7058H35.6104V34.0109H35.8104ZM32.9089 37.1C34.5148 37.1 35.8104 35.708 35.8104 34.0109H35.6104C35.6104 35.61 34.3923 36.9 32.9089 36.9V37.1ZM16.5913 37.1H32.9089V36.9H16.5913V37.1ZM13.6898 34.0109C13.6898 35.708 14.9852 37.1 16.5913 37.1V36.9C15.1077 36.9 13.8898 35.61 13.8898 34.0109H13.6898ZM13.6898 23.7058V34.0109H13.8898V23.7058H13.6898ZM11.65 20.5178C11.65 22.0047 12.5199 23.2818 13.7511 23.798L13.8284 23.6136C12.6742 23.1296 11.85 21.927 11.85 20.5178H11.65ZM11.65 17.9065V20.5178H11.85V17.9065H11.65ZM11.6828 17.6573C11.6611 17.7383 11.65 17.8222 11.65 17.9065H11.85C11.85 17.8396 11.8588 17.7732 11.876 17.709L11.6828 17.6573ZM12.7541 13.6563L11.6828 17.6573L11.876 17.709L12.9473 13.7081L12.7541 13.6563ZM16.1832 10.9C14.6682 10.9 13.1677 12.1122 12.7541 13.6563L12.9473 13.7081C13.3395 12.2438 14.7664 11.1 16.1832 11.1V10.9ZM33.3168 10.9H16.1832V11.1H33.3168V10.9ZM36.7459 13.6563C36.3323 12.1122 34.8318 10.9 33.3168 10.9V11.1C34.7336 11.1 36.1605 12.2438 36.5527 13.7081L36.7459 13.6563ZM14.4122 14.1546C14.5129 13.7786 14.7704 13.4199 15.0998 13.1547C15.4297 12.8892 15.8215 12.7254 16.1832 12.7254V12.5254C15.7644 12.5254 15.3297 12.7129 14.9744 12.9989C14.6189 13.2851 14.3328 13.678 14.219 14.1029L14.4122 14.1546ZM13.6182 17.1196L14.4122 14.1546L14.219 14.1029L13.425 17.0679L13.6182 17.1196ZM35.9784 16.9937H13.5216V17.1937H35.9784V16.9937ZM35.0878 14.1546L35.8818 17.1196L36.075 17.0679L35.281 14.1029L35.0878 14.1546ZM33.3168 12.7254C33.6784 12.7254 34.0702 12.8892 34.4001 13.1547C34.7296 13.4199 34.9871 13.7787 35.0878 14.1546L35.281 14.1029C35.1672 13.678 34.8811 13.2851 34.5255 12.9989C34.1702 12.7129 33.7355 12.5254 33.3168 12.5254V12.7254ZM16.1832 12.7254H33.3168V12.5254H16.1832V12.7254ZM18.1687 18.8192H21.5407V18.6192H18.1687V18.8192ZM18.2687 20.5178V18.7192H18.0687V20.5178H18.2687ZM19.8546 22.2168C18.9863 22.2168 18.2687 21.4607 18.2687 20.5178H18.0687C18.0687 21.5588 18.8638 22.4168 19.8546 22.4168V22.2168ZM21.4407 20.5178C21.4407 21.4607 20.7231 22.2168 19.8546 22.2168V22.4168C20.8455 22.4168 21.6407 21.5588 21.6407 20.5178H21.4407ZM21.4407 18.7192V20.5178H21.6407V18.7192H21.4407ZM23.0641 18.8192H26.4359V18.6192H23.0641V18.8192ZM23.1641 20.5178V18.7192H22.9641V20.5178H23.1641ZM24.75 22.2168C23.8817 22.2168 23.1641 21.4607 23.1641 20.5178H22.9641C22.9641 21.5588 23.7592 22.4168 24.75 22.4168V22.2168ZM26.3359 20.5178C26.3359 21.4607 25.6183 22.2168 24.75 22.2168V22.4168C25.7408 22.4168 26.5359 21.5588 26.5359 20.5178H26.3359ZM26.3359 18.7192V20.5178H26.5359V18.7192H26.3359ZM27.9593 18.8192H31.3311V18.6192H27.9593V18.8192ZM28.0593 20.5178V18.7192H27.8593V20.5178H28.0593ZM29.6452 22.2168C28.7769 22.2168 28.0593 21.4607 28.0593 20.5178H27.8593C27.8593 21.5588 28.6545 22.4168 29.6452 22.4168V22.2168ZM31.2311 20.5178C31.2311 21.4608 30.5137 22.2168 29.6452 22.2168V22.4168C30.6362 22.4168 31.4311 21.5588 31.4311 20.5178H31.2311ZM31.2311 18.7192V20.5178H31.4311V18.7192H31.2311ZM13.3734 20.5178V18.7192H13.1734V20.5178H13.3734ZM14.9593 22.2168C14.091 22.2168 13.3734 21.4607 13.3734 20.5178H13.1734C13.1734 21.5588 13.9686 22.4168 14.9593 22.4168V22.2168ZM16.5452 20.5178C16.5452 21.4608 15.8278 22.2168 14.9593 22.2168V22.4168C15.9503 22.4168 16.7452 21.5588 16.7452 20.5178H16.5452ZM16.5452 18.7192V20.5178H16.7452V18.7192H16.5452ZM13.2734 18.8192H16.6452V18.6192H13.2734V18.8192ZM19.4926 35.3745V30.4711H19.2926V35.3745H19.4926ZM21.9487 35.2745H19.3926V35.4746H21.9487V35.2745ZM21.8487 30.4711V35.3745H22.0487V30.4711H21.8487ZM19.3926 30.5711H21.9487V30.3711H19.3926V30.5711ZM32.9089 35.2745H23.4721V35.4746H32.9089V35.2745ZM34.0868 34.0109C34.087 34.7139 33.5523 35.2745 32.9089 35.2745V35.4746C33.6747 35.4746 34.287 34.8119 34.2868 34.0109L34.0868 34.0109ZM34.0868 23.9211V34.0109H34.2868V23.9211H34.0868ZM32.0146 22.7915C32.547 23.4613 33.3105 23.9186 34.1751 24.0204L34.1985 23.8217C33.3905 23.7267 32.6734 23.2989 32.1711 22.667L32.0146 22.7915ZM29.6452 24.0422C30.6586 24.0422 31.5648 23.5543 32.1711 22.7915L32.0146 22.667C31.4426 23.3866 30.5921 23.8422 29.6452 23.8422V24.0422ZM27.1193 22.7915C27.7256 23.5543 28.6318 24.0422 29.6452 24.0422V23.8422C28.6984 23.8422 27.8479 23.3866 27.2759 22.667L27.1193 22.7915ZM24.75 24.0422C25.7634 24.0422 26.6696 23.5543 27.2759 22.7915L27.1193 22.667C26.5474 23.3866 25.6968 23.8422 24.75 23.8422V24.0422ZM22.2241 22.7915C22.8304 23.5543 23.7366 24.0422 24.75 24.0422V23.8422C23.8032 23.8422 22.9526 23.3866 22.3807 22.667L22.2241 22.7915ZM19.8546 24.0422C20.868 24.0422 21.7744 23.5543 22.3807 22.7915L22.2241 22.667C21.6521 23.3866 20.8014 23.8422 19.8546 23.8422V24.0422ZM17.3287 22.7915C17.9352 23.5543 18.8412 24.0422 19.8546 24.0422V23.8422C18.9077 23.8422 18.0574 23.3867 17.4852 22.667L17.3287 22.7915ZM15.3249 24.0204C16.1895 23.9186 16.953 23.4613 17.4852 22.7915L17.3287 22.6671C16.8266 23.2989 16.1095 23.7267 15.3015 23.8217L15.3249 24.0204ZM15.4132 34.0109V23.9211H15.2132V34.0109H15.4132ZM16.5913 35.2745C15.9477 35.2745 15.4132 34.7139 15.4132 34.0109H15.2132C15.2132 34.8119 15.8253 35.4746 16.5913 35.4746V35.2745ZM17.8691 35.2745H16.5913V35.4746H17.8691V35.2745ZM17.7691 29.6584V35.3745H17.9691V29.6584H17.7691ZM18.6309 28.7457C18.1491 28.7457 17.7691 29.1607 17.7691 29.6584H17.9691C17.9691 29.2587 18.2716 28.9457 18.6309 28.9457V28.7457ZM22.7104 28.7457H18.6309V28.9457H22.7104V28.7457ZM23.5721 29.6584C23.5721 29.1607 23.1922 28.7457 22.7104 28.7457V28.9457C23.0697 28.9457 23.3721 29.2587 23.3721 29.6584H23.5721ZM23.5721 35.3745V29.6584H23.3721V35.3745H23.5721ZM34.5407 22.2168C33.6722 22.2168 32.9548 21.4607 32.9548 20.518H32.7548C32.7548 21.5588 33.5497 22.4168 34.5407 22.4168V22.2168ZM36.1266 20.518C36.1266 21.4607 35.409 22.2168 34.5407 22.2168V22.4168C35.5314 22.4168 36.3266 21.5588 36.3266 20.518H36.1266ZM36.1266 18.7192V20.518H36.3266V18.7192H36.1266ZM32.8548 18.8192H36.2266V18.6192H32.8548V18.8192ZM32.9548 20.518V18.7192H32.7548V20.518H32.9548ZM30.8691 26.1336H26.7897V26.3336H30.8691V26.1336ZM31.7308 27.0776C31.7308 26.5664 31.3545 26.1336 30.8691 26.1336V26.3336C31.2252 26.3336 31.5308 26.657 31.5308 27.0776H31.7308ZM31.7308 31.636V27.0776H31.5308V31.636H31.7308ZM30.8691 32.58C31.3545 32.58 31.7308 32.1473 31.7308 31.636H31.5308C31.5308 32.0567 31.2252 32.38 30.8691 32.38V32.58ZM26.7897 32.58H30.8691V32.38H26.7897V32.58ZM25.928 31.636C25.928 32.1473 26.3044 32.58 26.7897 32.58V32.38C26.4336 32.38 26.128 32.0567 26.128 31.636H25.928ZM25.928 27.0776V31.636H26.128V27.0776H25.928ZM26.7897 26.1336C26.3044 26.1336 25.928 26.5664 25.928 27.0776H26.128C26.128 26.657 26.4336 26.3336 26.7897 26.3336V26.1336ZM30.1074 30.692H27.5515V30.892H30.1074V30.692ZM30.0074 27.9216V30.792H30.2074V27.9216H30.0074ZM27.5515 28.0216H30.1074V27.8216H27.5515V28.0216ZM27.6515 30.792V27.9216H27.4515V30.792H27.6515Z" fill="#0086FF"/>
</svg>
