<svg width="49" height="48" viewBox="0 0 49 48" fill="none" xmlns="http://www.w3.org/2000/svg">
<path d="M37.521 22.8285C37.521 22.2774 37.0742 21.8306 36.5231 21.8306C35.972 21.8306 35.5252 22.2774 35.5252 22.8285H37.521ZM31.5088 35.7163H18.8856V37.7121H31.5088V35.7163ZM35.5252 22.8285V31.6999H37.521V22.8285H35.5252ZM18.8856 35.7163C16.6802 35.7163 14.8924 33.9285 14.8924 31.7232H12.8966C12.8966 35.0308 15.578 37.7121 18.8856 37.7121V35.7163ZM31.5088 37.7121C34.8292 37.7121 37.521 35.0203 37.521 31.6999H35.5252C35.5252 33.9181 33.727 35.7163 31.5088 35.7163V37.7121Z" fill="#0086FF"/>
<path d="M12.8931 25.3999C12.8931 25.951 13.3398 26.3978 13.891 26.3978C14.4421 26.3978 14.8888 25.951 14.8888 25.3999H12.8931ZM18.9052 11.9978H31.6025V10.002H18.9052V11.9978ZM14.8888 25.3999V16.0142H12.8931V25.3999H14.8888ZM31.6025 11.9978C33.767 11.9978 35.5216 13.7525 35.5216 15.917H37.5174C37.5174 12.6502 34.8692 10.002 31.6025 10.002V11.9978ZM18.9052 10.002C15.5848 10.002 12.8931 12.6938 12.8931 16.0142H14.8888C14.8888 13.796 16.687 11.9978 18.9052 11.9978V10.002Z" fill="#0086FF"/>
<path d="M37.5174 16.0143C37.5174 16.5654 37.0706 17.0122 36.5195 17.0122C35.9684 17.0122 35.5216 16.5654 35.5216 16.0143H37.5174ZM35.5216 16.0143V15.6286H37.5174V16.0143H35.5216Z" fill="#0086FF"/>
<path d="M14.8924 30.5428C14.8924 29.9917 14.4456 29.545 13.8945 29.545C13.3434 29.545 12.8966 29.9917 12.8966 30.5428H14.8924ZM12.8966 30.5428V31.9571H14.8924V30.5428H12.8966Z" fill="#0086FF"/>
<rect width="8.169" height="1.88469" rx="0.942344" transform="matrix(0.576031 -0.817428 0.86845 0.495776 12.6914 25.906)" fill="#0086FF"/>
<rect width="8.169" height="1.88469" rx="0.942344" transform="matrix(0.576031 0.817428 0.86845 -0.495776 8.75 20.1628)" fill="#0086FF"/>
<rect width="8.169" height="1.88469" rx="0.942344" transform="matrix(0.576031 0.817428 0.86845 -0.495776 35.3203 20.163)" fill="#0086FF"/>
<rect width="8.169" height="1.88469" rx="0.942344" transform="matrix(0.576031 -0.817428 0.86845 0.495776 31.3789 25.9061)" fill="#0086FF"/>
<path d="M26.9835 26.388C26.9835 25.9896 26.8519 25.6615 26.5886 25.4037C26.3254 25.1413 25.8867 24.9069 25.2726 24.7007C24.6584 24.4898 24.1808 24.2953 23.8396 24.1172C22.7039 23.5314 22.136 22.6643 22.136 21.516C22.136 20.738 22.3822 20.0983 22.8745 19.5968C23.3668 19.0953 24.0345 18.7977 24.8778 18.704V17.1714H26.0476V18.718C26.8957 18.8352 27.5513 19.182 28.0144 19.7585C28.4774 20.3303 28.709 21.0755 28.709 21.9941H26.9396C26.9396 21.4036 26.8007 20.9396 26.5228 20.6021C26.2499 20.26 25.877 20.0889 25.4042 20.0889C24.9363 20.0889 24.5707 20.2108 24.3075 20.4545C24.0443 20.6982 23.9127 21.0474 23.9127 21.502C23.9127 21.9097 24.0418 22.2378 24.3002 22.4862C24.5634 22.7299 25.0069 22.9619 25.6309 23.1822C26.2548 23.4025 26.7446 23.6064 27.1004 23.7938C27.4563 23.9813 27.756 24.1969 27.9997 24.4406C28.2435 24.6796 28.4311 24.9562 28.5627 25.2702C28.6943 25.5842 28.7601 25.9521 28.7601 26.3739C28.7601 27.166 28.5067 27.8081 27.9997 28.3002C27.4977 28.7923 26.7958 29.0829 25.8941 29.1719V30.5428H24.7315V29.179C23.7664 29.0758 23.0231 28.7431 22.5016 28.1807C21.9849 27.6183 21.7266 26.8731 21.7266 25.9451H23.5032C23.5032 26.5356 23.6568 26.9926 23.9639 27.316C24.2758 27.6393 24.7145 27.801 25.2799 27.801C25.8356 27.801 26.2572 27.6722 26.5448 27.4144C26.8372 27.1566 26.9835 26.8145 26.9835 26.388Z" fill="#0086FF"/>
</svg>
