<svg width="49" height="48" viewBox="0 0 49 48" fill="none" xmlns="http://www.w3.org/2000/svg">
<circle opacity="0.05" cx="24.75" cy="24" r="24" fill="white"/>
<path d="M32.9331 38.1638L32.933 38.1639L31.7583 39.3514L30.5642 38.1573L29.3468 36.9398L29.3236 36.9167L29.3005 36.9398L28.0831 38.1573L26.8888 39.3516L25.6945 38.1573L24.4771 36.9398L24.4539 36.9167L24.4308 36.9398L23.2133 38.1573L22.0191 39.3516L20.8344 38.1669V17.9685C20.8344 16.962 20.1446 16.122 19.2158 15.8871H35.7118C36.8653 15.8871 37.7932 16.8214 37.7932 17.9685V38.1734L36.6085 39.3581L35.4143 38.1638L34.1968 36.9464L34.1737 36.9232L34.1506 36.9464L32.9331 38.1638Z" stroke="#A400E1" stroke-width="0.0654531"/>
<path fill-rule="evenodd" clip-rule="evenodd" d="M24.2826 19.65C23.8179 19.65 23.3984 20.0106 23.3984 20.5C23.3984 20.9895 23.8179 21.35 24.2826 21.35H34.2143C34.6789 21.35 35.0984 20.9895 35.0984 20.5C35.0984 20.0106 34.6789 19.65 34.2143 19.65H24.2826ZM24.2644 22.65C23.798 22.65 23.3984 23.0217 23.3984 23.5C23.3984 23.9863 23.8006 24.35 24.2644 24.35H31.2325C31.6988 24.35 32.0984 23.9783 32.0984 23.5C32.0984 23.0217 31.6988 22.65 31.2325 22.65H24.2644ZM24.2826 25.65C23.8179 25.65 23.3984 26.0106 23.3984 26.5C23.3984 26.9974 23.8205 27.35 24.2826 27.35H34.2143C34.6789 27.35 35.0984 26.9895 35.0984 26.5C35.0984 26.0106 34.6789 25.65 34.2143 25.65H24.2826ZM24.2873 28.65C23.8231 28.65 23.3984 29.0078 23.3984 29.5C23.3984 29.9923 23.8231 30.35 24.2873 30.35H31.2096C31.6738 30.35 32.0984 29.9923 32.0984 29.5C32.0984 29.0078 31.6738 28.65 31.2096 28.65H24.2873ZM24.2614 31.65C23.7948 31.65 23.3984 32.0236 23.3984 32.5C23.3984 32.9764 23.7948 33.35 24.2614 33.35H28.2355C28.7021 33.35 29.0984 32.9764 29.0984 32.5C29.0984 32.0236 28.7021 31.65 28.2355 31.65H24.2614Z" fill="#A400E1"/>
<path d="M31.3205 39.8233C31.5496 40.0524 31.9292 40.0524 32.1583 39.8233L34.1742 37.8073L36.1902 39.8233C36.308 39.9411 36.4585 40 36.6091 40C36.7596 40 36.9102 39.9411 37.028 39.8233L38.2454 38.6059C38.3567 38.4946 38.4221 38.344 38.4221 38.187V17.9685C38.4221 16.4762 37.2112 15.2653 35.7189 15.2653H31.1699V8.59562C31.1699 8.26836 30.9016 8 30.5743 8H12.3456C12.0184 8 11.75 8.26836 11.75 8.59562V28.8075C11.75 30.2999 12.9609 31.5107 14.4532 31.5107H17.883C18.2102 31.5107 18.4786 31.2424 18.4786 30.9151C18.4786 30.5879 18.2102 30.3195 17.883 30.3195H16.6917C16.9862 29.8875 17.163 29.3639 17.163 28.801V17.9685C17.163 17.1307 17.8437 16.45 18.6815 16.45C19.5193 16.45 20.2 17.1307 20.2 17.9685V38.1804C20.2 38.2197 20.2065 38.2589 20.2131 38.2982C20.2196 38.3244 20.2262 38.344 20.2327 38.3702C20.2393 38.3833 20.2393 38.3964 20.2458 38.4095C20.2589 38.4357 20.272 38.4619 20.2851 38.4815C20.2916 38.488 20.2916 38.5011 20.2982 38.5077C20.3178 38.5404 20.344 38.5731 20.3702 38.5993L21.5876 39.8167C21.8167 40.0458 22.1963 40.0458 22.4254 39.8167L24.4413 37.8008L26.4573 39.8167C26.6864 40.0458 27.066 40.0458 27.2951 39.8167L29.3111 37.8008L31.3205 39.8233ZM15.9783 17.9685V28.8075C15.9783 29.6453 15.2976 30.326 14.4598 30.326C13.622 30.326 12.9412 29.6453 12.9412 28.8075V9.1847H29.9852V15.2653H18.6815C17.1891 15.2653 15.9783 16.4762 15.9783 17.9685ZM26.8762 38.56L24.8602 36.5441C24.7424 36.4263 24.5919 36.3674 24.4413 36.3674C24.2908 36.3674 24.1403 36.4263 24.0224 36.5441L22.0065 38.56L21.3847 37.9382V17.9685C21.3847 17.8834 21.3781 17.7983 21.3716 17.7198C21.3716 17.6936 21.3651 17.674 21.3651 17.6478C21.3585 17.5889 21.352 17.53 21.3389 17.4711C21.3323 17.4449 21.3323 17.4252 21.3258 17.3991C21.3127 17.3271 21.2931 17.2485 21.2669 17.1765C21.2669 17.17 21.2669 17.17 21.2603 17.1634C21.2341 17.0849 21.208 17.0129 21.1752 16.9409C21.1687 16.9213 21.1556 16.9016 21.1491 16.8754C21.1229 16.8231 21.1032 16.7707 21.0705 16.7183C21.0574 16.6987 21.0509 16.6791 21.0378 16.6529C21.0051 16.594 20.9658 16.5285 20.9265 16.4696C20.92 16.4631 20.92 16.4565 20.9134 16.45C20.9134 16.45 20.9134 16.45 20.9134 16.4434H35.6993C36.5371 16.4434 37.2178 17.1242 37.2178 17.962V37.9382L36.596 38.56L34.58 36.5441C34.3509 36.315 33.9713 36.315 33.7422 36.5441L31.7263 38.56L29.73 36.5506C29.5009 36.3215 29.1212 36.3215 28.8922 36.5506L26.8762 38.56Z" fill="#A400E1" stroke="#A400E1" stroke-width="0.5"/>
</svg>
