<svg width="49" height="48" viewBox="0 0 49 48" fill="none" xmlns="http://www.w3.org/2000/svg">
<circle opacity="0.05" cx="24.75" cy="24" r="24" fill="white"/>
<path d="M28.5946 34.787H16.9572C15.4625 34.787 14.2447 33.7906 14.2262 32.5666L15.7885 14.9935H18.4949V17.4108C18.4949 17.8168 18.8271 18.1489 19.233 18.1489C19.639 18.1489 19.9711 17.8168 19.9711 17.4108V14.9935H28.1333V17.4108C28.1333 17.8168 28.4655 18.1489 28.8714 18.1489C29.2774 18.1489 29.6095 17.8168 29.6095 17.4108V14.9935H32.3159L32.7649 19.7789C32.8018 20.1849 33.1647 20.4863 33.5707 20.4432C33.9767 20.4063 34.2719 20.0434 34.235 19.6374L33.7245 14.1816C33.6876 13.8003 33.3677 13.5112 32.9925 13.5112H29.6095C29.5849 10.4665 27.1 8 24.0553 8C21.0045 8 18.5195 10.4665 18.5011 13.5112H15.1119C14.7306 13.5112 14.4107 13.8003 14.3738 14.1816L12.75 32.4682C12.75 32.4928 12.75 32.5112 12.75 32.5358C12.75 34.5902 14.6383 36.2633 16.9572 36.2633H28.5946C29.0006 36.2633 29.3328 35.9311 29.3328 35.5252C29.3328 35.1192 29.0068 34.787 28.5946 34.787ZM24.0492 9.48236C26.2819 9.48236 28.1026 11.2907 28.1272 13.5173H19.965C19.9896 11.2907 21.8102 9.48236 24.0492 9.48236Z" fill="#A400E1" stroke="#A400E1" stroke-width="0.27648"/>
<path d="M33.9021 24.9825C31.9953 24.9825 30.4453 26.5326 30.4453 28.4393C30.4453 30.3461 31.9953 31.8961 33.9021 31.8961C35.8089 31.8961 37.3589 30.3461 37.3589 28.4393C37.3589 26.5326 35.8027 24.9825 33.9021 24.9825ZM33.9021 30.4199C32.8072 30.4199 31.9215 29.5342 31.9215 28.4393C31.9215 27.3445 32.8072 26.4588 33.9021 26.4588C34.997 26.4588 35.8827 27.3445 35.8827 28.4393C35.8827 29.5342 34.9908 30.4199 33.9021 30.4199Z" fill="#A400E1" stroke="#A400E1" stroke-width="0.27648"/>
<path d="M33.6759 22.0486C30.5143 22.1593 27.9002 24.6135 27.5988 27.7628C27.5434 28.3655 27.5681 28.9745 27.6788 29.5711C27.6849 29.608 27.6972 29.6757 27.7218 29.7802C27.8202 30.2047 27.9617 30.6229 28.1462 31.0227C28.7798 32.5112 30.1576 34.7994 33.1223 37.2659C33.3437 37.4504 33.6205 37.5488 33.9035 37.5488C34.1864 37.5488 34.4693 37.4504 34.6846 37.2659C37.6493 34.8055 39.0271 32.5174 39.6607 31.0227C39.8452 30.6229 39.9867 30.2047 40.0789 29.7802C40.1035 29.6695 40.1158 29.5957 40.122 29.565C40.1958 29.1775 40.2327 28.7777 40.2327 28.3778C40.2327 24.8103 37.2741 21.9194 33.6759 22.0486ZM29.1304 29.5896C29.1488 29.5035 29.1488 29.4173 29.1365 29.3251C29.1488 29.4112 29.1488 29.5035 29.1304 29.5896ZM38.6704 29.3005C38.6704 29.3128 38.6642 29.3189 38.6642 29.3312C38.6642 29.3435 38.6519 29.3866 38.6396 29.4419V29.4481C38.5658 29.7802 38.4551 30.1001 38.3136 30.4076C38.3075 30.4138 38.3075 30.4199 38.3013 30.4322C37.7477 31.7424 36.5299 33.766 33.9035 35.9865C31.2709 33.7599 30.0592 31.7424 29.5056 30.4322C29.4994 30.4261 29.4994 30.4199 29.4933 30.4076C29.3518 30.1001 29.2411 29.7741 29.1673 29.4481V29.4419C29.1488 29.3743 29.1427 29.3374 29.1427 29.3251C29.1427 29.3189 29.1427 29.3066 29.1365 29.3005C29.0504 28.8392 29.0258 28.3717 29.0689 27.9042C29.3026 25.4931 31.3016 23.6109 33.7312 23.5248C36.4868 23.4264 38.7626 25.6407 38.7626 28.3778C38.7565 28.6854 38.7257 28.9929 38.6704 29.3005Z" fill="#A400E1" stroke="#A400E1" stroke-width="0.27648"/>
</svg>
