<svg width="40" height="40" viewBox="0 0 40 40" fill="none" xmlns="http://www.w3.org/2000/svg">
<path d="M9.13462 8C8.50799 8 8 8.50799 8 9.13462V13.8663C8 14.4929 8.50799 15.0009 9.13462 15.0009H13.8663C14.4929 15.0009 15.0009 14.4929 15.0009 13.8663V9.13462C15.0009 8.50799 14.4929 8 13.8663 8H9.13462ZM13.0008 11.8662C13.0008 12.4928 12.4928 13.0008 11.8662 13.0008H11.135C10.5084 13.0008 10.0004 12.4928 10.0004 11.8662V11.135C10.0004 10.5084 10.5084 10.0004 11.135 10.0004H11.8662C12.4928 10.0004 13.0008 10.5084 13.0008 11.135V11.8662Z" fill="#0086FF"/>
<path d="M9.13462 25.0022C8.50799 25.0022 8 25.5102 8 26.1368V30.8688C8 31.4954 8.50799 32.0034 9.13462 32.0034H13.8663C14.4929 32.0034 15.0009 31.4954 15.0009 30.8688V26.1368C15.0009 25.5102 14.4929 25.0022 13.8663 25.0022H9.13462ZM13.0008 28.8687C13.0008 29.4953 12.4928 30.0033 11.8662 30.0033H11.135C10.5084 30.0033 10.0004 29.4953 10.0004 28.8687V28.1375C10.0004 27.5109 10.5084 27.0029 11.135 27.0029H11.8662C12.4928 27.0029 13.0008 27.5109 13.0008 28.1375V28.8687Z" fill="#0086FF"/>
<path d="M26.1346 8C25.508 8 25 8.50799 25 9.13462V13.8663C25 14.4929 25.508 15.0009 26.1346 15.0009H30.8663C31.4929 15.0009 32.0009 14.4929 32.0009 13.8663V9.13462C32.0009 8.50799 31.4929 8 30.8663 8H26.1346ZM30.0005 11.8662C30.0005 12.4928 29.4925 13.0008 28.8659 13.0008H28.1347C27.5081 13.0008 27.0001 12.4928 27.0001 11.8662V11.135C27.0001 10.5084 27.5081 10.0004 28.1347 10.0004H28.8659C29.4925 10.0004 30.0005 10.5084 30.0005 11.135V11.8662Z" fill="#0086FF"/>
<path d="M31.0007 17.001C30.4483 17.001 30.0005 17.4488 30.0005 18.0012V21.8672C30.0005 22.4939 29.4925 23.0018 28.8659 23.0018H26C25.4477 23.0018 25 23.4496 25 24.0019C25 24.5542 25.4477 25.0019 26 25.0019H30.8663C31.4929 25.0019 32.0009 24.494 32.0009 23.8673V18.0012C32.0009 17.4488 31.5531 17.001 31.0007 17.001Z" fill="#0086FF"/>
<path d="M26.1346 27.0029C25.508 27.0029 25 27.5109 25 28.1375V31.0034C25 31.5557 25.4477 32.0035 26 32.0035C26.5524 32.0035 27.0001 31.5557 27.0001 31.0034V30.1376C27.0001 29.511 27.5081 29.003 28.1347 29.003H28.8659C29.4925 29.003 30.0005 29.511 30.0005 30.1376V31.0033C30.0005 31.5557 30.4483 32.0035 31.0007 32.0035C31.5531 32.0035 32.0009 31.5557 32.0009 31.0033V28.1375C32.0009 27.5109 31.4929 27.0029 30.8663 27.0029H26.1346Z" fill="#0086FF"/>
<path d="M18.0041 8C17.4517 8 17.0039 8.4478 17.0039 9.0002C17.0039 9.55259 17.4517 10.0004 18.0041 10.0004H19.8698C20.4964 10.0004 21.0044 10.5084 21.0044 11.135V14.0007C21.0044 14.5531 21.4522 15.0009 22.0046 15.0009C22.557 15.0009 23.0048 14.5531 23.0048 14.0007V9.13462C23.0048 8.50799 22.4968 8 21.8702 8H18.0041Z" fill="#0086FF"/>
<path d="M22.139 17.001C21.5124 17.001 21.0044 17.509 21.0044 18.1356V19.8671C21.0044 20.4938 20.4964 21.0018 19.8698 21.0018H18.1385C17.5119 21.0018 17.0039 21.5097 17.0039 22.1364V25.868C17.0039 26.4946 17.5119 27.0026 18.1385 27.0026H19.8698C20.4964 27.0026 21.0044 27.5106 21.0044 28.1373V31.003C21.0044 31.5554 21.4522 32.0032 22.0046 32.0032C22.557 32.0032 23.0048 31.5554 23.0048 31.003V26.1366C23.0048 25.5099 22.4968 25.0019 21.8702 25.0019H20.0043C19.452 25.0019 19.0043 24.5542 19.0043 24.0019C19.0043 23.4496 19.452 23.0019 20.0043 23.0019H21.8702C22.4968 23.0019 23.0048 22.4939 23.0048 21.8672V20.0016C23.0048 19.4492 23.4526 19.0014 24.005 19.0014C24.5574 19.0014 25.0052 19.4492 25.0052 20.0016C25.0052 20.5539 25.4529 21.0018 26.0052 21.0018C26.5575 21.0018 27.0053 20.554 27.0053 20.0017V18.1356C27.0053 17.509 26.4973 17.001 25.8706 17.001H22.139Z" fill="#0086FF"/>
<path d="M19.0043 31.0034V30.0034C19.0043 29.451 18.5565 29.0032 18.0041 29.0032C17.4517 29.0032 17.0039 29.451 17.0039 30.0034V31.0034C17.0039 31.5558 17.4517 32.0036 18.0041 32.0036C18.5565 32.0036 19.0043 31.5558 19.0043 31.0034Z" fill="#0086FF"/>
<path d="M14.0004 21.002H13C12.4477 21.002 12 21.4497 12 22.002C12 22.5543 12.4477 23.002 13 23.002H14.0004C14.5527 23.002 15.0004 22.5543 15.0004 22.002C15.0004 21.4497 14.5527 21.002 14.0004 21.002Z" fill="#0086FF"/>
<path d="M18.0015 12.0002C17.4491 12.0002 17.0013 12.448 17.0013 13.0004V15.8665C17.0013 16.4931 16.4933 17.0011 15.8667 17.0011H9.13462C8.50799 17.0011 8 17.5091 8 18.1357V22.0017C8 22.5541 8.4478 23.0019 9.0002 23.0019C9.55259 23.0019 10.0004 22.5541 10.0004 22.0017V20.1361C10.0004 19.5094 10.5084 19.0015 11.135 19.0015H17.8671C18.4937 19.0015 19.0017 18.4935 19.0017 17.8668V13.0004C19.0017 12.448 18.5539 12.0002 18.0015 12.0002Z" fill="#0086FF"/>
</svg>
