<svg width="49" height="48" viewBox="0 0 49 48" fill="none" xmlns="http://www.w3.org/2000/svg">
<rect x="17.75" y="14" width="21" height="21" rx="3" stroke="#0086FF" stroke-width="2"/>
<path d="M29.8609 26.9606C29.8609 26.5733 29.7329 26.2543 29.477 26.0037C29.2211 25.7485 28.7946 25.5207 28.1975 25.3202C27.6004 25.1151 27.136 24.926 26.8043 24.7529C25.7001 24.1833 25.1481 23.3403 25.1481 22.224C25.1481 21.4676 25.3874 20.8456 25.866 20.358C26.3446 19.8705 26.9939 19.5811 27.8137 19.49V18H28.951V19.5037C29.7756 19.6176 30.413 19.9548 30.8631 20.5152C31.3133 21.0712 31.5384 21.7957 31.5384 22.6887H29.8182C29.8182 22.1146 29.6832 21.6635 29.413 21.3354C29.1477 21.0028 28.7851 20.8365 28.3255 20.8365C27.8705 20.8365 27.5151 20.955 27.2592 21.1919C27.0033 21.4288 26.8754 21.7683 26.8754 22.2103C26.8754 22.6067 27.001 22.9257 27.2521 23.1672C27.508 23.4041 27.9393 23.6297 28.5458 23.8438C29.1524 24.058 29.6287 24.2562 29.9746 24.4385C30.3205 24.6207 30.612 24.8304 30.8489 25.0673C31.0859 25.2997 31.2683 25.5685 31.3963 25.8738C31.5242 26.1791 31.5882 26.5368 31.5882 26.9469C31.5882 27.717 31.3418 28.3412 30.8489 28.8197C30.3608 29.2981 29.6784 29.5806 28.8017 29.6672V31H27.6715V29.674C26.7332 29.5738 26.0105 29.2503 25.5035 28.7035C25.0012 28.1567 24.75 27.4322 24.75 26.53H26.4773C26.4773 27.1041 26.6266 27.5484 26.9251 27.8628C27.2284 28.1772 27.6549 28.3344 28.2046 28.3344C28.7449 28.3344 29.1548 28.2091 29.4344 27.9585C29.7187 27.7079 29.8609 27.3752 29.8609 26.9606Z" fill="#0086FF"/>
<rect x="6.75" y="18" width="8" height="2" rx="1" fill="#0086FF"/>
<rect x="9.75" y="24" width="5" height="2" rx="1" fill="#0086FF"/>
<rect x="6.75" y="30" width="8" height="2" rx="1" fill="#0086FF"/>
</svg>
